<svg width="128" height="128" viewBox="0 0 128 128" fill="none" xmlns="http://www.w3.org/2000/svg">
  <rect width="128" height="128" rx="32" fill="#ECFEFF"/>
  <rect x="16" y="16" width="96" height="96" rx="28" fill="url(#paint0_linear)"/>
  <path d="M64 34C52.9543 34 44 42.9543 44 54V78C44 81.3137 46.6863 84 50 84H78C81.3137 84 84 81.3137 84 78V54C84 42.9543 75.0457 34 64 34Z" fill="white" fill-opacity="0.92"/>
  <path d="M64 44L67.6745 53.3255L77 57L67.6745 60.6745L64 70L60.3255 60.6745L51 57L60.3255 53.3255L64 44Z" fill="#059669"/>
  <path d="M36 68C36 52.536 48.536 40 64 40" stroke="#0F172A" stroke-opacity="0.08" stroke-width="4" stroke-linecap="round"/>
  <defs>
    <linearGradient id="paint0_linear" x1="16" y1="16" x2="112" y2="112" gradientUnits="userSpaceOnUse">
      <stop stop-color="#0891B2"/>
      <stop offset="1" stop-color="#22D3EE"/>
    </linearGradient>
  </defs>
</svg>
